<svg width="512" height="512" viewBox="0 0 512 512" fill="none" xmlns="http://www.w3.org/2000/svg">
  <!-- Cradling Hands -->
  <path d="M100 400C60 360 40 300 40 240C40 180 60 120 100 80" stroke="#0047AB" stroke-width="30" stroke-linecap="round"/>
  <path d="M412 80C452 120 472 180 472 240C472 300 452 360 412 400" stroke="#0047AB" stroke-width="30" stroke-linecap="round"/>
  <!-- Central Shield -->
  <path d="M140 140V260C140 340 256 410 256 410C256 410 372 340 372 260V140H140Z" fill="#0047AB"/>
  <!-- White A + Pulse -->
  <path d="M256 190L200 320M256 190L312 320M200 270H230L245 245L267 295L282 270H312" stroke="white" stroke-width="20" stroke-linecap="round" stroke-linejoin="round"/>
</svg>
